# xmcd CD database file
# Copyright (C) 1996 Ti Kan
#
# Track frame offsets:
#  150
#  5987
#  43767
#  76187
#  109562
#  140110
#  174452
#  201042
#  234507
#
# Disc length: 3800 seconds
#
# Revision: 2
# Processed by: cddbd v1.4b41PL1 Copyright (c) Steve Scherf et al.
# Submitted via: CDWizzard Release:4.12
#
DISCID=740ed609
DTITLE=Johnny Heartsman - Made In Germany
DYEAR=1900
DGENRE=
TTITLE0=Intro
TTITLE1=That's Allright
TTITLE2=Flute Juice
TTITLE3=Cold Cold Feeling
TTITLE4=I Don't Want No Woman
TTITLE5=Let Me Love You
TTITLE6=Ain't No Sunshine
TTITLE7=Sweet Frisco Blues
TTITLE8=Flip, Flop and Fly
EXTD=
EXTT0=
EXTT1=
EXTT2=
EXTT3=
EXTT4=
EXTT5=
EXTT6=
EXTT7=
EXTT8=
PLAYORDER=
